<?xml version="1.0" encoding="UTF-8"?>
<svg xmlns="http://www.w3.org/2000/svg" xmlns:xlink="http://www.w3.org/1999/xlink" width="40pt" height="40pt" viewBox="0 0 40 40" version="1.1">
<g id="surface1">
<path style=" stroke:none;fill-rule:nonzero;fill:rgb(0%,0%,0%);fill-opacity:1;" d="M 36.550781 6.894531 L 3.449219 6.894531 C 1.546875 6.894531 0 8.441406 0 10.34375 L 0 29.65625 C 0 31.558594 1.546875 33.105469 3.449219 33.105469 L 36.550781 33.105469 C 38.453125 33.105469 40 31.558594 40 29.65625 L 40 10.34375 C 40 8.441406 38.453125 6.894531 36.550781 6.894531 Z M 3.449219 7.914062 L 36.550781 7.914062 C 37.890625 7.914062 38.984375 9.003906 38.984375 10.34375 L 38.984375 12.523438 L 1.015625 12.523438 L 1.015625 10.34375 C 1.015625 9.003906 2.109375 7.914062 3.449219 7.914062 Z M 36.550781 32.085938 L 3.449219 32.085938 C 2.109375 32.085938 1.015625 30.996094 1.015625 29.65625 L 1.015625 14.984375 L 38.984375 14.984375 L 38.984375 29.65625 C 38.984375 30.996094 37.890625 32.085938 36.550781 32.085938 Z M 36.550781 32.085938 "/>
<path style=" stroke:none;fill-rule:nonzero;fill:rgb(0%,0%,0%);fill-opacity:1;" d="M 12.148438 20.644531 L 6.214844 20.644531 C 5.125 20.644531 4.238281 21.53125 4.238281 22.621094 L 4.238281 24.972656 C 4.238281 26.0625 5.125 26.953125 6.214844 26.953125 L 12.148438 26.953125 C 13.242188 26.953125 14.128906 26.0625 14.128906 24.972656 L 14.128906 22.621094 C 14.128906 21.53125 13.242188 20.644531 12.148438 20.644531 Z M 13.109375 24.972656 C 13.109375 25.503906 12.679688 25.933594 12.148438 25.933594 L 6.214844 25.933594 C 5.683594 25.933594 5.253906 25.503906 5.253906 24.972656 L 5.253906 22.621094 C 5.253906 22.089844 5.683594 21.660156 6.214844 21.660156 L 12.148438 21.660156 C 12.679688 21.660156 13.109375 22.089844 13.109375 22.621094 Z M 13.109375 24.972656 "/>
<path style=" stroke:none;fill-rule:nonzero;fill:rgb(0%,0%,0%);fill-opacity:1;" d="M 35.378906 20.644531 L 18.832031 20.644531 C 18.550781 20.644531 18.320312 20.871094 18.320312 21.152344 C 18.320312 21.433594 18.550781 21.660156 18.832031 21.660156 L 35.378906 21.660156 C 35.660156 21.660156 35.886719 21.433594 35.886719 21.152344 C 35.886719 20.871094 35.660156 20.644531 35.378906 20.644531 Z M 35.378906 20.644531 "/>
<path style=" stroke:none;fill-rule:nonzero;fill:rgb(0%,0%,0%);fill-opacity:1;" d="M 26.777344 24.613281 L 18.832031 24.613281 C 18.550781 24.613281 18.320312 24.839844 18.320312 25.121094 C 18.320312 25.402344 18.550781 25.628906 18.832031 25.628906 L 26.777344 25.628906 C 27.058594 25.628906 27.289062 25.402344 27.289062 25.121094 C 27.289062 24.839844 27.058594 24.613281 26.777344 24.613281 Z M 26.777344 24.613281 "/>
</g>
</svg>
